<mxfile host="app.diagrams.net" agent="Mozilla/5.0 (Windows NT 10.0; Win64; x64) AppleWebKit/537.36 (KHTML, like Gecko) Chrome/136.0.0.0 Safari/537.36" version="27.0.6">
  <diagram name="Página-1" id="lN0FRMMmn14tMrOCOC-_">
    <mxGraphModel grid="1" page="1" gridSize="10" guides="1" tooltips="1" connect="1" arrows="1" fold="1" pageScale="1" pageWidth="827" pageHeight="1169" math="0" shadow="0">
      <root>
        <mxCell id="0" />
        <mxCell id="1" parent="0" />
        <mxCell id="0LUI1FUsWf3MegFjuKD--1" value="&#xa;" style="whiteSpace=wrap;strokeWidth=2;" vertex="1" parent="1">
          <mxGeometry x="48" y="132" width="1499" height="429" as="geometry" />
        </mxCell>
        <mxCell id="0LUI1FUsWf3MegFjuKD--3" value="Acessar Módulo de Relatórios" style="whiteSpace=wrap;strokeWidth=2;" vertex="1" parent="1">
          <mxGeometry x="665" y="157" width="260" height="78" as="geometry" />
        </mxCell>
        <mxCell id="0LUI1FUsWf3MegFjuKD--4" value="Gerar Relatório de Viagens por Período" style="whiteSpace=wrap;strokeWidth=2;" vertex="1" parent="1">
          <mxGeometry x="131" y="308" width="260" height="78" as="geometry" />
        </mxCell>
        <mxCell id="0LUI1FUsWf3MegFjuKD--5" value="Gerar Relatório de Utilização de Veículos" style="whiteSpace=wrap;strokeWidth=2;" vertex="1" parent="1">
          <mxGeometry x="441" y="308" width="260" height="78" as="geometry" />
        </mxCell>
        <mxCell id="0LUI1FUsWf3MegFjuKD--6" value="Gerar Relatório de Viagens por Motorista" style="whiteSpace=wrap;strokeWidth=2;" vertex="1" parent="1">
          <mxGeometry x="751" y="308" width="260" height="78" as="geometry" />
        </mxCell>
        <mxCell id="0LUI1FUsWf3MegFjuKD--7" value="Gerar Relatório de Solicitações por Status" style="whiteSpace=wrap;strokeWidth=2;" vertex="1" parent="1">
          <mxGeometry x="1061" y="308" width="260" height="78" as="geometry" />
        </mxCell>
        <mxCell id="0LUI1FUsWf3MegFjuKD--8" value="Exportar Relatório" style="whiteSpace=wrap;strokeWidth=2;" vertex="1" parent="1">
          <mxGeometry x="209" y="470" width="191" height="54" as="geometry" />
        </mxCell>
        <mxCell id="0LUI1FUsWf3MegFjuKD--9" value="Programar Relatórios Automáticos" style="whiteSpace=wrap;strokeWidth=2;" vertex="1" parent="1">
          <mxGeometry x="1251" y="157" width="260" height="78" as="geometry" />
        </mxCell>
        <mxCell id="0LUI1FUsWf3MegFjuKD--10" value="Selecionar Período&#xa;de Análise" style="whiteSpace=wrap;strokeWidth=2;" vertex="1" parent="1">
          <mxGeometry x="1581" y="458" width="260" height="78" as="geometry" />
        </mxCell>
        <mxCell id="0LUI1FUsWf3MegFjuKD--11" value="Selecionar Formato&#xa;de Exportação" style="whiteSpace=wrap;strokeWidth=2;" vertex="1" parent="1">
          <mxGeometry x="20" y="633" width="260" height="78" as="geometry" />
        </mxCell>
        <mxCell id="0LUI1FUsWf3MegFjuKD--12" value="Configurar Frequência&#xa;e Destinatários" style="whiteSpace=wrap;strokeWidth=2;" vertex="1" parent="1">
          <mxGeometry x="1581" y="308" width="260" height="78" as="geometry" />
        </mxCell>
        <mxCell id="0LUI1FUsWf3MegFjuKD--13" value="Enviar Relatório&#xa;por Email" style="whiteSpace=wrap;strokeWidth=2;" vertex="1" parent="1">
          <mxGeometry x="808" y="645" width="256" height="54" as="geometry" />
        </mxCell>
        <mxCell id="0LUI1FUsWf3MegFjuKD--14" value="" style="curved=1;startArrow=none;endArrow=block;exitX=0;exitY=0.66;entryX=0.5;entryY=0;rounded=0;" edge="1" parent="1" target="0LUI1FUsWf3MegFjuKD--3">
          <mxGeometry relative="1" as="geometry">
            <Array as="points">
              <mxPoint x="795" y="107" />
            </Array>
            <mxPoint x="946.1309448014804" y="59.29695977736651" as="sourcePoint" />
          </mxGeometry>
        </mxCell>
        <mxCell id="0LUI1FUsWf3MegFjuKD--15" value="" style="curved=1;startArrow=none;endArrow=block;exitX=0;exitY=0.74;entryX=0.5;entryY=-0.01;rounded=0;" edge="1" parent="1" source="0LUI1FUsWf3MegFjuKD--3" target="0LUI1FUsWf3MegFjuKD--4">
          <mxGeometry relative="1" as="geometry">
            <Array as="points">
              <mxPoint x="261" y="271" />
            </Array>
          </mxGeometry>
        </mxCell>
        <mxCell id="0LUI1FUsWf3MegFjuKD--16" value="" style="curved=1;startArrow=none;endArrow=block;exitX=0.05;exitY=1;entryX=0.5;entryY=-0.01;rounded=0;" edge="1" parent="1" source="0LUI1FUsWf3MegFjuKD--3" target="0LUI1FUsWf3MegFjuKD--5">
          <mxGeometry relative="1" as="geometry">
            <Array as="points">
              <mxPoint x="571" y="271" />
            </Array>
          </mxGeometry>
        </mxCell>
        <mxCell id="0LUI1FUsWf3MegFjuKD--17" value="" style="curved=1;startArrow=none;endArrow=block;exitX=0.67;exitY=1;entryX=0.5;entryY=-0.01;rounded=0;" edge="1" parent="1" source="0LUI1FUsWf3MegFjuKD--3" target="0LUI1FUsWf3MegFjuKD--6">
          <mxGeometry relative="1" as="geometry">
            <Array as="points">
              <mxPoint x="881" y="271" />
            </Array>
          </mxGeometry>
        </mxCell>
        <mxCell id="0LUI1FUsWf3MegFjuKD--18" value="" style="curved=1;startArrow=none;endArrow=block;exitX=1;exitY=0.82;entryX=0.5;entryY=-0.01;rounded=0;" edge="1" parent="1" source="0LUI1FUsWf3MegFjuKD--3" target="0LUI1FUsWf3MegFjuKD--7">
          <mxGeometry relative="1" as="geometry">
            <Array as="points">
              <mxPoint x="1191" y="271" />
            </Array>
          </mxGeometry>
        </mxCell>
        <mxCell id="0LUI1FUsWf3MegFjuKD--19" value="" style="curved=1;startArrow=none;endArrow=block;exitX=0.26;exitY=0.99;entryX=0.19;entryY=0;rounded=0;" edge="1" parent="1" source="0LUI1FUsWf3MegFjuKD--4" target="0LUI1FUsWf3MegFjuKD--8">
          <mxGeometry relative="1" as="geometry">
            <Array as="points">
              <mxPoint x="140" y="422" />
            </Array>
          </mxGeometry>
        </mxCell>
        <mxCell id="0LUI1FUsWf3MegFjuKD--20" value="" style="curved=1;startArrow=none;endArrow=block;exitX=0;exitY=0.97;entryX=0.5;entryY=0;rounded=0;" edge="1" parent="1" source="0LUI1FUsWf3MegFjuKD--5" target="0LUI1FUsWf3MegFjuKD--8">
          <mxGeometry relative="1" as="geometry">
            <Array as="points">
              <mxPoint x="305" y="422" />
            </Array>
          </mxGeometry>
        </mxCell>
        <mxCell id="0LUI1FUsWf3MegFjuKD--21" value="" style="curved=1;startArrow=none;endArrow=block;exitX=0;exitY=0.8;entryX=0.82;entryY=0;rounded=0;" edge="1" parent="1" source="0LUI1FUsWf3MegFjuKD--6" target="0LUI1FUsWf3MegFjuKD--8">
          <mxGeometry relative="1" as="geometry">
            <Array as="points">
              <mxPoint x="475" y="422" />
            </Array>
          </mxGeometry>
        </mxCell>
        <mxCell id="0LUI1FUsWf3MegFjuKD--22" value="" style="curved=1;startArrow=none;endArrow=block;exitX=0;exitY=0.79;entryX=1;entryY=0.21;rounded=0;" edge="1" parent="1" source="0LUI1FUsWf3MegFjuKD--7" target="0LUI1FUsWf3MegFjuKD--8">
          <mxGeometry relative="1" as="geometry">
            <Array as="points">
              <mxPoint x="769" y="422" />
            </Array>
          </mxGeometry>
        </mxCell>
        <mxCell id="0LUI1FUsWf3MegFjuKD--23" value="" style="curved=1;startArrow=none;endArrow=block;exitX=1;exitY=0.57;entryX=0.5;entryY=0;rounded=0;" edge="1" parent="1" target="0LUI1FUsWf3MegFjuKD--9">
          <mxGeometry relative="1" as="geometry">
            <Array as="points">
              <mxPoint x="1381" y="107" />
            </Array>
            <mxPoint x="1006.8103957748485" y="54.42337730831673" as="sourcePoint" />
          </mxGeometry>
        </mxCell>
        <mxCell id="0LUI1FUsWf3MegFjuKD--24" value="&lt;&lt;include&gt;&gt;" style="curved=1;dashed=1;dashPattern=2 3;startArrow=none;endArrow=block;exitX=1;exitY=0.72;entryX=0;entryY=0.36;rounded=0;" edge="1" parent="1" source="0LUI1FUsWf3MegFjuKD--4" target="0LUI1FUsWf3MegFjuKD--10">
          <mxGeometry relative="1" as="geometry">
            <Array as="points">
              <mxPoint x="821" y="422" />
            </Array>
          </mxGeometry>
        </mxCell>
        <mxCell id="0LUI1FUsWf3MegFjuKD--25" value="&lt;&lt;include&gt;&gt;" style="curved=1;dashed=1;dashPattern=2 3;startArrow=none;endArrow=block;exitX=1;exitY=0.77;entryX=0;entryY=0.32;rounded=0;" edge="1" parent="1" source="0LUI1FUsWf3MegFjuKD--5" target="0LUI1FUsWf3MegFjuKD--10">
          <mxGeometry relative="1" as="geometry">
            <Array as="points">
              <mxPoint x="1018" y="422" />
            </Array>
          </mxGeometry>
        </mxCell>
        <mxCell id="0LUI1FUsWf3MegFjuKD--26" value="&lt;&lt;include&gt;&gt;" style="curved=1;dashed=1;dashPattern=2 3;startArrow=none;endArrow=block;exitX=1;exitY=0.87;entryX=0;entryY=0.25;rounded=0;" edge="1" parent="1" source="0LUI1FUsWf3MegFjuKD--6" target="0LUI1FUsWf3MegFjuKD--10">
          <mxGeometry relative="1" as="geometry">
            <Array as="points">
              <mxPoint x="1215" y="422" />
            </Array>
          </mxGeometry>
        </mxCell>
        <mxCell id="0LUI1FUsWf3MegFjuKD--27" value="&lt;&lt;include&gt;&gt;" style="curved=1;dashed=1;dashPattern=2 3;startArrow=none;endArrow=block;exitX=0.94;exitY=0.99;entryX=0;entryY=0.08;rounded=0;" edge="1" parent="1" source="0LUI1FUsWf3MegFjuKD--7" target="0LUI1FUsWf3MegFjuKD--10">
          <mxGeometry relative="1" as="geometry">
            <Array as="points">
              <mxPoint x="1412" y="422" />
            </Array>
          </mxGeometry>
        </mxCell>
        <mxCell id="0LUI1FUsWf3MegFjuKD--28" value="&lt;&lt;include&gt;&gt;" style="curved=1;dashed=1;dashPattern=2 3;startArrow=none;endArrow=block;exitX=0.16;exitY=1;entryX=0.5;entryY=0;rounded=0;" edge="1" parent="1" source="0LUI1FUsWf3MegFjuKD--8" target="0LUI1FUsWf3MegFjuKD--11">
          <mxGeometry x="-0.0308" y="16" relative="1" as="geometry">
            <Array as="points">
              <mxPoint x="150" y="561" />
            </Array>
            <mxPoint as="offset" />
          </mxGeometry>
        </mxCell>
        <mxCell id="0LUI1FUsWf3MegFjuKD--29" value="&lt;&lt;include&gt;&gt;" style="curved=1;dashed=1;dashPattern=2 3;startArrow=none;endArrow=block;exitX=0.5;exitY=1;entryX=0;entryY=0.11;rounded=0;" edge="1" parent="1" source="0LUI1FUsWf3MegFjuKD--9" target="0LUI1FUsWf3MegFjuKD--12">
          <mxGeometry relative="1" as="geometry">
            <Array as="points">
              <mxPoint x="1381" y="271" />
            </Array>
          </mxGeometry>
        </mxCell>
        <mxCell id="0LUI1FUsWf3MegFjuKD--30" value="&lt;&lt;extend&gt;&gt;" style="curved=1;dashed=1;dashPattern=2 3;startArrow=none;endArrow=block;exitX=1;exitY=0.68;entryX=0.5;entryY=0.01;rounded=0;" edge="1" parent="1" source="0LUI1FUsWf3MegFjuKD--8" target="0LUI1FUsWf3MegFjuKD--13">
          <mxGeometry x="0.0667" y="-10" relative="1" as="geometry">
            <Array as="points">
              <mxPoint x="937" y="561" />
            </Array>
            <mxPoint as="offset" />
          </mxGeometry>
        </mxCell>
        <mxCell id="0LUI1FUsWf3MegFjuKD--31" value="&lt;span style=&quot;text-wrap-mode: wrap;&quot;&gt;Gestor&lt;/span&gt;" style="shape=umlActor;verticalLabelPosition=bottom;verticalAlign=top;html=1;outlineConnect=0;" vertex="1" parent="1">
          <mxGeometry x="960" y="20" width="30" height="60" as="geometry" />
        </mxCell>
      </root>
    </mxGraphModel>
  </diagram>
</mxfile>
